<svg id="visual" viewBox="0 0 900 600" width="900" height="600" xmlns="http://www.w3.org/2000/svg" xmlns:xlink="http://www.w3.org/1999/xlink" version="1.1"><rect x="0" y="0" width="900" height="600" fill="#001220"></rect><defs><linearGradient id="grad1_0" x1="33.3%" y1="0%" x2="100%" y2="100%"><stop offset="20%" stop-color="#001220" stop-opacity="1"></stop><stop offset="80%" stop-color="#001220" stop-opacity="1"></stop></linearGradient></defs><defs><linearGradient id="grad2_0" x1="0%" y1="0%" x2="66.7%" y2="100%"><stop offset="20%" stop-color="#001220" stop-opacity="1"></stop><stop offset="80%" stop-color="#001220" stop-opacity="1"></stop></linearGradient></defs><g transform="translate(900, 0)"><path d="M0 405.6C-23.6 364.8 -47.2 324 -87.2 325.5C-127.3 327.1 -183.7 371 -202.8 351.3C-221.9 331.6 -203.6 248.3 -206.5 206.5C-209.4 164.7 -233.5 164.3 -268.5 155C-303.4 145.7 -349.2 127.5 -373.8 100.2C-398.5 72.8 -402 36.4 -405.6 0L0 0Z" fill="#b6b6b6"></path></g><g transform="translate(0, 600)"><path d="M0 -405.6C24.5 -350.8 49.1 -296.1 74.3 -277.2C99.5 -258.4 125.4 -275.5 166.5 -288.4C207.6 -301.3 263.7 -309.9 286.8 -286.8C309.9 -263.7 300 -208.9 294.4 -170C288.9 -131.1 287.9 -108 307.2 -82.3C326.4 -56.6 366 -28.3 405.6 0L0 0Z" fill="#b6b6b6"></path></g></svg>