<svg id="visual" viewBox="0 0 900 600" width="900" height="600" xmlns="http://www.w3.org/2000/svg" xmlns:xlink="http://www.w3.org/1999/xlink" version="1.1"><rect x="0" y="0" width="900" height="600" fill="#090a0a"></rect><path d="M0 496L7.5 440.3C15 384.7 30 273.3 45 254.5C60 235.7 75 309.3 90 377.3C105 445.3 120 507.7 135 515.8C150 524 165 478 180 439.2C195 400.3 210 368.7 225 362.8C240 357 255 377 270 362.2C285 347.3 300 297.7 315 281.7C330 265.7 345 283.3 360 280C375 276.7 390 252.3 405 222.7C420 193 435 158 450 138C465 118 480 113 495 124.5C510 136 525 164 540 234.3C555 304.7 570 417.3 585 446.8C600 476.3 615 422.7 630 375.7C645 328.7 660 288.3 675 306.2C690 324 705 400 720 394.3C735 388.7 750 301.3 765 307C780 312.7 795 411.3 810 454C825 496.7 840 483.3 855 423.7C870 364 885 258 892.5 205L900 152L900 601L892.5 601C885 601 870 601 855 601C840 601 825 601 810 601C795 601 780 601 765 601C750 601 735 601 720 601C705 601 690 601 675 601C660 601 645 601 630 601C615 601 600 601 585 601C570 601 555 601 540 601C525 601 510 601 495 601C480 601 465 601 450 601C435 601 420 601 405 601C390 601 375 601 360 601C345 601 330 601 315 601C300 601 285 601 270 601C255 601 240 601 225 601C210 601 195 601 180 601C165 601 150 601 135 601C120 601 105 601 90 601C75 601 60 601 45 601C30 601 15 601 7.5 601L0 601Z" fill="#cdd2d9" stroke-linecap="round" stroke-linejoin="miter"></path></svg>