<svg id="visual" viewBox="0 0 900 600" width="900" height="600" xmlns="http://www.w3.org/2000/svg" xmlns:xlink="http://www.w3.org/1999/xlink" version="1.1"><rect x="0" y="0" width="900" height="600" fill="#090a0a"></rect><path d="M0 383L21.5 405.8C43 428.7 86 474.3 128.8 494.2C171.7 514 214.3 508 257.2 493.2C300 478.3 343 454.7 385.8 435.8C428.7 417 471.3 403 514.2 395C557 387 600 385 642.8 407.3C685.7 429.7 728.3 476.3 771.2 479.8C814 483.3 857 443.7 878.5 423.8L900 404L900 601L878.5 601C857 601 814 601 771.2 601C728.3 601 685.7 601 642.8 601C600 601 557 601 514.2 601C471.3 601 428.7 601 385.8 601C343 601 300 601 257.2 601C214.3 601 171.7 601 128.8 601C86 601 43 601 21.5 601L0 601Z" fill="#cdd2d9" stroke-linecap="round" stroke-linejoin="miter"></path></svg>