<svg id="visual" viewBox="0 0 900 600" width="900" height="600" xmlns="http://www.w3.org/2000/svg" xmlns:xlink="http://www.w3.org/1999/xlink" version="1.1"><rect x="0" y="0" width="900" height="600" fill="#090a0a"></rect><path d="M0 215L21.5 202.2C43 189.3 86 163.7 128.8 147.7C171.7 131.7 214.3 125.3 257.2 123.2C300 121 343 123 385.8 138.2C428.7 153.3 471.3 181.7 514.2 178.5C557 175.3 600 140.7 642.8 131.8C685.7 123 728.3 140 771.2 149.7C814 159.3 857 161.7 878.5 162.8L900 164L900 0L878.5 0C857 0 814 0 771.2 0C728.3 0 685.7 0 642.8 0C600 0 557 0 514.2 0C471.3 0 428.7 0 385.8 0C343 0 300 0 257.2 0C214.3 0 171.7 0 128.8 0C86 0 43 0 21.5 0L0 0Z" fill="#cdd2d9" stroke-linecap="round" stroke-linejoin="miter"></path></svg>