<svg id="visual" viewBox="0 0 900 600" width="900" height="600" xmlns="http://www.w3.org/2000/svg" xmlns:xlink="http://www.w3.org/1999/xlink" version="1.1"><rect x="0" y="0" width="900" height="600" fill="#090a0a"></rect><path d="M0 426L21.5 434C43 442 86 458 128.8 460.5C171.7 463 214.3 452 257.2 438.2C300 424.3 343 407.7 385.8 405.3C428.7 403 471.3 415 514.2 423.8C557 432.7 600 438.3 642.8 442.2C685.7 446 728.3 448 771.2 440.3C814 432.7 857 415.3 878.5 406.7L900 398L900 601L878.5 601C857 601 814 601 771.2 601C728.3 601 685.7 601 642.8 601C600 601 557 601 514.2 601C471.3 601 428.7 601 385.8 601C343 601 300 601 257.2 601C214.3 601 171.7 601 128.8 601C86 601 43 601 21.5 601L0 601Z" fill="#cdd2d9" stroke-linecap="round" stroke-linejoin="miter"></path></svg>